<svg width="100" height="22" viewBox="0 0 100 22" fill="none" xmlns="http://www.w3.org/2000/svg">
<path d="M37.394 4.88086H31.86C31.6768 4.88076 31.4996 4.93914 31.3603 5.04548C31.2209 5.15183 31.1287 5.29914 31.1002 5.46089L28.862 18.1441C28.8517 18.203 28.8558 18.2631 28.874 18.3204C28.8922 18.3777 28.9241 18.4308 28.9675 18.4761C29.0109 18.5213 29.0647 18.5576 29.1253 18.5824C29.1858 18.6073 29.2517 18.6201 29.3184 18.62H31.9603C32.1436 18.6201 32.321 18.5616 32.4603 18.4551C32.5996 18.3486 32.6918 18.2011 32.7201 18.0393L33.3238 14.6184C33.3521 14.4566 33.4442 14.3093 33.5833 14.2028C33.7225 14.0963 33.8996 14.0377 34.0828 14.0377H35.8347C39.48 14.0377 41.5839 12.461 42.1333 9.33667C42.3809 7.96977 42.1439 6.89577 41.4277 6.14362C40.6412 5.31769 39.2462 4.88086 37.394 4.88086ZM38.0324 9.51314C37.7298 11.2879 36.2126 11.2879 34.7455 11.2879H33.9104L34.4963 7.97338C34.5134 7.87641 34.5688 7.78809 34.6523 7.72432C34.7358 7.66055 34.842 7.62551 34.9519 7.62551H35.3346C36.3339 7.62551 37.2766 7.62551 37.7638 8.13466C38.0543 8.43842 38.1433 8.88971 38.0324 9.51314ZM53.936 9.456H51.286C51.1761 9.456 51.0699 9.49104 50.9864 9.55481C50.9029 9.61858 50.8476 9.7069 50.8304 9.80387L50.7131 10.4664L50.5278 10.2262C49.9541 9.48204 48.6747 9.23325 47.3979 9.23325C44.4694 9.23325 41.9683 11.2156 41.4811 13.9964C41.2279 15.3836 41.5879 16.71 42.4683 17.635C43.2759 18.4855 44.4314 18.8399 45.8062 18.8399C48.1658 18.8399 49.4742 17.4838 49.4742 17.4838L49.3561 18.142C49.3456 18.2008 49.3494 18.261 49.3674 18.3184C49.3854 18.3757 49.4171 18.429 49.4604 18.4743C49.5036 18.5197 49.5573 18.5561 49.6178 18.5812C49.6783 18.6062 49.7442 18.6192 49.8108 18.6193H52.1979C52.3812 18.6194 52.5586 18.5609 52.6979 18.4544C52.8372 18.3479 52.9294 18.2004 52.9577 18.0385L54.39 9.93188C54.4005 9.87317 54.3967 9.81312 54.3787 9.75586C54.3608 9.69861 54.3291 9.64552 54.2859 9.60028C54.2428 9.55503 54.1891 9.51869 54.1287 9.49378C54.0683 9.46887 54.0026 9.45598 53.936 9.456ZM50.2421 14.0659C49.9864 15.419 48.7848 16.3274 47.2522 16.3274C46.4827 16.3274 45.8677 16.1068 45.4728 15.6888C45.0812 15.2736 44.9323 14.6828 45.0569 14.0246C45.2956 12.683 46.5175 11.745 48.0266 11.745C48.7791 11.745 49.3909 11.9685 49.7938 12.3901C50.1976 12.8161 50.3578 13.4106 50.2421 14.0659ZM68.0498 9.456H65.3867C65.2612 9.45618 65.1375 9.48374 65.0265 9.53629C64.9156 9.58885 64.8206 9.66481 64.7499 9.75759L61.077 14.5931L59.5202 9.94635C59.4724 9.80463 59.3748 9.68042 59.2419 9.59211C59.109 9.50379 58.9478 9.45607 58.7822 9.456H56.1653C56.0919 9.45583 56.0194 9.47134 55.954 9.50124C55.8886 9.53114 55.8322 9.57457 55.7894 9.62792C55.7465 9.68126 55.7186 9.74297 55.7078 9.80792C55.6971 9.87287 55.7038 9.93918 55.7276 10.0013L58.6608 17.695L55.9032 21.1745C55.8541 21.2362 55.8251 21.3087 55.8191 21.3842C55.8132 21.4597 55.8306 21.5351 55.8695 21.6024C55.9083 21.6696 55.9671 21.7259 56.0394 21.7653C56.1117 21.8046 56.1948 21.8254 56.2794 21.8254H58.9392C59.0634 21.8255 59.1858 21.7988 59.2958 21.7474C59.4059 21.696 59.5004 21.6215 59.5712 21.5303L68.4285 10.1033C68.4765 10.0415 68.5046 9.96908 68.5099 9.89397C68.5151 9.81886 68.4973 9.7439 68.4583 9.67722C68.4193 9.61053 68.3605 9.55466 68.2885 9.51567C68.2165 9.47667 68.1339 9.45604 68.0498 9.456Z" fill="#022273"/>
<path d="M76.8624 4.88158H71.3276C71.1445 4.88165 70.9675 4.94011 70.8283 5.04644C70.6892 5.15277 70.5971 5.29999 70.5686 5.46161L68.3304 18.1449C68.32 18.2036 68.3239 18.2637 68.342 18.3209C68.3601 18.3782 68.3918 18.4313 68.435 18.4765C68.4783 18.5217 68.5319 18.558 68.5924 18.5829C68.6528 18.6079 68.7186 18.6207 68.7851 18.6207H71.6254C71.7535 18.6206 71.8774 18.5796 71.9747 18.505C72.072 18.4305 72.1363 18.3274 72.1562 18.2143L72.7914 14.6191C72.8197 14.4574 72.9118 14.31 73.0509 14.2035C73.1901 14.097 73.3672 14.0385 73.5504 14.0384H75.3015C78.9476 14.0384 81.0507 12.4617 81.6009 9.33739C81.8493 7.97049 81.6106 6.8965 80.8945 6.14434C80.1088 5.31841 78.7146 4.88158 76.8624 4.88158ZM77.5008 9.51386C77.199 11.2887 75.6818 11.2887 74.2139 11.2887H73.3797L73.9663 7.97411C73.9831 7.87713 74.0382 7.78874 74.1216 7.72493C74.2051 7.66112 74.3113 7.62611 74.4211 7.62623H74.8038C75.8023 7.62623 76.7458 7.62623 77.233 8.13539C77.5235 8.43914 77.6117 8.89044 77.5008 9.51386ZM93.4036 9.45672H90.7552C90.6453 9.45645 90.539 9.49141 90.4556 9.55525C90.3721 9.61908 90.3171 9.70756 90.3004 9.8046L90.1831 10.4671L89.997 10.227C89.4233 9.48276 88.1448 9.23397 86.8679 9.23397C83.9395 9.23397 81.4391 11.2163 80.952 13.9971C80.6995 15.3843 81.058 16.7107 81.9384 17.6357C82.7475 18.4862 83.9014 18.8406 85.2762 18.8406C87.6358 18.8406 88.9442 17.4846 88.9442 17.4846L88.8261 18.1427C88.8155 18.2017 88.8195 18.262 88.8375 18.3194C88.8556 18.3769 88.8875 18.4302 88.9309 18.4756C88.9743 18.521 89.0282 18.5574 89.0889 18.5824C89.1496 18.6073 89.2157 18.6201 89.2825 18.62H91.6687C91.8519 18.6199 92.0291 18.5614 92.1682 18.4549C92.3074 18.3484 92.3994 18.201 92.4278 18.0393L93.8608 9.93261C93.871 9.87371 93.8668 9.81355 93.8484 9.75625C93.8301 9.69895 93.7981 9.64587 93.7547 9.60066C93.7113 9.55545 93.6574 9.51917 93.5968 9.49433C93.5362 9.46948 93.4703 9.45665 93.4036 9.45672ZM89.7097 14.0666C89.4556 15.4197 88.2524 16.3281 86.7198 16.3281C85.9519 16.3281 85.3353 16.1075 84.9404 15.6895C84.5488 15.2744 84.4015 14.6835 84.5245 14.0254C84.7648 12.6838 85.9851 11.7457 87.4942 11.7457C88.2467 11.7457 88.8585 11.9692 89.2614 12.3909C89.6668 12.8168 89.8271 13.4113 89.7097 14.0666ZM96.5279 5.22946L94.2565 18.1449C94.2461 18.2036 94.2501 18.2637 94.2681 18.3209C94.2862 18.3782 94.3179 18.4313 94.3612 18.4765C94.4044 18.5217 94.4581 18.558 94.5185 18.5829C94.5789 18.6079 94.6447 18.6207 94.7113 18.6207H96.9948C97.3743 18.6207 97.6963 18.3748 97.7546 18.04L99.9944 5.35747C100.005 5.29868 100.001 5.23857 99.9828 5.18129C99.9647 5.124 99.933 5.07089 99.8898 5.0256C99.8466 4.98031 99.7929 4.94393 99.7325 4.91894C99.672 4.89396 99.6062 4.88096 99.5396 4.88086H96.9826C96.8729 4.88121 96.7668 4.91648 96.6835 4.98035C96.6001 5.04423 96.545 5.13254 96.5279 5.22946Z" fill="#167FC4"/>
<path d="M5.87887 21.0851L6.30207 18.6825L5.35938 18.663H0.85791L3.9862 0.93449C3.99551 0.880321 4.0263 0.830948 4.07293 0.795369C4.11957 0.75979 4.17897 0.740376 4.24028 0.740665H11.8304C14.3502 0.740665 16.0891 1.20932 16.997 2.13433C17.4226 2.56826 17.6937 3.02173 17.8248 3.52075C17.9624 4.04437 17.9648 4.66996 17.8305 5.43297L17.8207 5.48866V5.97756L18.2464 6.19308C18.5713 6.34022 18.8634 6.53925 19.1082 6.78034C19.4723 7.15136 19.7078 7.6229 19.8073 8.18196C19.9101 8.75693 19.8761 9.4411 19.7078 10.2157C19.5136 11.1067 19.1996 11.8827 18.7756 12.5177C18.4015 13.0866 17.8985 13.5793 17.2988 13.9642C16.7356 14.3214 16.0664 14.5927 15.3099 14.7662C14.5767 14.9369 13.7409 15.023 12.8241 15.023H12.2334C11.811 15.023 11.4007 15.1589 11.0787 15.4027C10.7571 15.649 10.5437 15.9893 10.4766 16.3631L10.4321 16.5794L9.68445 20.8139L9.65046 20.9694C9.64156 21.0185 9.62618 21.0431 9.60353 21.0598C9.58158 21.0758 9.5542 21.0847 9.52585 21.0851H5.87887Z" fill="#022273"/>
<path d="M18.6488 5.54565C18.6262 5.67511 18.6003 5.80746 18.5712 5.94343C17.5702 10.5367 14.1457 12.1234 9.77213 12.1234H7.54527C7.0104 12.1234 6.55969 12.4706 6.47634 12.9421L5.33621 19.4049L5.01334 21.2368C5.00048 21.3095 5.00539 21.3838 5.02774 21.4546C5.05008 21.5254 5.08933 21.591 5.14278 21.647C5.19623 21.7029 5.2626 21.7479 5.33734 21.7787C5.41209 21.8095 5.49341 21.8255 5.57572 21.8255H9.52533C9.99304 21.8255 10.3903 21.5218 10.464 21.1095L10.5028 20.9302L11.2465 16.7123L11.2942 16.4809C11.367 16.0672 11.7651 15.7634 12.2328 15.7634H12.8235C16.6502 15.7634 19.6457 14.3748 20.5213 10.3566C20.887 8.67796 20.6977 7.27634 19.7299 6.29058C19.4232 5.98564 19.0568 5.73321 18.6488 5.54565Z" fill="#167FC4"/>
<path d="M17.6005 5.17159C17.2809 5.08896 16.9558 5.02446 16.6271 4.97849C15.9776 4.88927 15.3211 4.84647 14.664 4.85048H8.71491C8.4885 4.85032 8.26951 4.92256 8.0975 5.05414C7.9255 5.18573 7.81184 5.36797 7.77707 5.56792L6.51151 12.7322L6.4751 12.9412C6.51452 12.7132 6.64398 12.5052 6.84004 12.3551C7.0361 12.2049 7.28582 12.1224 7.54402 12.1225H9.77089C14.1445 12.1225 17.569 10.535 18.5699 5.94255C18.5998 5.80658 18.6249 5.67423 18.6476 5.54478C18.3835 5.42098 18.1082 5.3172 17.8247 5.23451C17.7503 5.21247 17.6756 5.19149 17.6005 5.17159Z" fill="#022273"/>
<path d="M7.77938 5.56813C7.81386 5.36812 7.92746 5.1858 8.09955 5.05428C8.27164 4.92277 8.4908 4.85079 8.71722 4.85141H14.6663C15.3711 4.85141 16.029 4.89264 16.6294 4.97943C17.0357 5.0365 17.4364 5.12186 17.8278 5.23473C18.1231 5.32224 18.3974 5.42566 18.6507 5.54499C18.9485 3.84757 18.6483 2.69186 17.6214 1.64534C16.4894 0.493242 14.4462 0 11.8318 0H4.24165C3.70759 0 3.25202 0.34715 3.16948 0.819418L0.00801874 18.7302C-0.00670684 18.8133 -0.00110426 18.8983 0.0244411 18.9794C0.0499864 19.0604 0.0948683 19.1355 0.155999 19.1996C0.21713 19.2636 0.29306 19.3151 0.378565 19.3504C0.464069 19.3857 0.55712 19.4041 0.651317 19.4042H5.33728L6.51382 12.7324L7.77938 5.56813Z" fill="#022273"/>
</svg>
